<?xml version="1.0" encoding="UTF-8"?>
<svg width="16px" height="16px" viewBox="0 0 16 16" version="1.1" xmlns="http://www.w3.org/2000/svg" xmlns:xlink="http://www.w3.org/1999/xlink">
    <!-- Generator: Sketch 42 (36781) - http://www.bohemiancoding.com/sketch -->
    <title>Edit</title>
    <desc>Created with Sketch.</desc>
    <defs></defs>
    <g id="Page-1" stroke="none" stroke-width="1" fill="none" fill-rule="evenodd">
        <path d="M0.939540251,-5.68434189e-14 C1.05911394,-5.68434189e-14 1.18388649,0.0259942813 1.30865904,0.0753834156 L1.31645733,0.0753834156 L6.39054103,2.45905901 L6.44252959,2.48505329 L15.072631,11.1203535 C15.3689658,11.4140889 15.5301303,11.8066025 15.5301303,12.222511 C15.5301303,12.6384195 15.3663663,13.0309332 15.072631,13.3246686 L13.3310141,15.0662854 C13.0346793,15.3600208 12.6421657,15.5211853 12.2262572,15.5211853 C11.8103487,15.5211853 11.417835,15.3574214 11.1240996,15.063686 L2.52779084,6.47257603 L2.48879941,6.43358461 L2.46540456,6.38419548 L0.0921266816,1.33870548 C-0.0482424372,1.03977125 -0.0274470122,0.712243306 0.1493141,0.434104497 C0.323475785,0.1663634 0.625009447,-5.68434189e-14 0.939540251,-5.68434189e-14 L0.939540251,-5.68434189e-14 Z M11.1890854,12.6124253 L12.2236577,13.6469977 L13.6507438,12.2199116 L12.6161714,11.1853392 L11.1890854,12.6124253 L11.1890854,12.6124253 Z M2.70195252,2.70080582 L3.96787402,5.39381336 L9.92836271,11.3517026 L11.3554488,9.92461658 L5.39496006,3.96672732 L2.70195252,2.70080582 L2.70195252,2.70080582 Z" id="Edit" fill="#666666" transform="translate(7.765065, 7.760593) scale(1, -1) translate(-7.765065, -7.760593) "></path>
    </g>
</svg>