<svg>
  <symbol id="icon-add" viewBox="0 0 16 16">
      <path d="M6.745 0h1.948v16H6.745V0zm.974.487l-.49.487h.974L7.72.487v15.026l.486-.487h-.974l.487.487V.487zM16 7.307v1.948H0V7.307h16zm-.487.974l-.487-.485v.974l.487-.488H.487l.487.488v-.974l-.487.487h15.026z"/>
  </symbol>
  <symbol id="icon-close" viewBox="0 0 15 16">
      <path d="M13.372 0L15 1.628 1.628 15 0 13.372 13.372 0zm.407 1.22h-.816l.814.815V1.22L1.22 13.78h.815l-.814-.815v.814L13.78 1.22zM15 13.84l-1.628 1.63L0 2.098 1.628.47 15 13.84zm-1.22.408v-.814l-.815.814h.814L1.22 1.69v.815l.815-.814H1.22l12.56 12.56z"/>
  </symbol>
  <symbol id="icon-edit" viewBox="0 0 16 16">
      <path d="M.94 15.52c-.315 0-.617-.165-.79-.433-.177-.278-.198-.606-.058-.905l2.373-5.045.024-.05.037-.038L11.124.455C11.418.164 11.81 0 12.226 0c.416 0 .81.16 1.105.455l1.744 1.742c.293.293.457.686.457 1.102 0 .414-.16.806-.456 1.1l-8.63 8.635-.052.026-5.074 2.385H1.31c-.126.05-.25.075-.37.075zM11.19 2.91l1.426 1.426L13.65 3.3l-1.426-1.426L11.19 2.91zM2.7 12.82l2.693-1.266 5.96-5.957L9.928 4.17l-5.96 5.957-1.266 2.693z"/>
  </symbol>
  <symbol id="icon-run" viewBox="0 0 14 17">
      <path d="M11.28 8.147l-9.413-5.59v11.18l9.414-5.59zm-9.68 7.92c-.884.525-1.6.118-1.6-.915V1.142C0 .112.72-.294 1.6.228l11.74 6.97c.883.525.878 1.378 0 1.9L1.6 16.066z"/>
  </symbol>
</svg>
