<?xml version="1.0" encoding="UTF-8"?>
<svg width="14px" height="14px" viewBox="0 0 14 14" version="1.1" xmlns="http://www.w3.org/2000/svg" xmlns:xlink="http://www.w3.org/1999/xlink">
    <!-- Generator: Sketch 42 (36781) - http://www.bohemiancoding.com/sketch -->
    <title>Close</title>
    <desc>Created with Sketch.</desc>
    <defs></defs>
    <g id="Page-1" stroke="none" stroke-width="1" fill="none" fill-rule="evenodd">
        <path d="M5.92307692,-1 L7.92307692,-1 L7.92307692,15.4230769 L5.92307692,15.4230769 L5.92307692,-1 Z M6.92307692,-0.5 L6.42307692,0 L7.42307692,0 L6.92307692,-0.5 L6.92307692,14.9230769 L7.42307692,14.4230769 L6.42307692,14.4230769 L6.92307692,14.9230769 L6.92307692,-0.5 Z M15.4230769,6.5 L15.4230769,8.5 L-1,8.5 L-1,6.5 L15.4230769,6.5 Z M14.9230769,7.5 L14.4230769,7 L14.4230769,8 L14.9230769,7.5 L-0.5,7.5 L0,8 L0,7 L-0.5,7.5 L14.9230769,7.5 Z" id="Close" fill="#666666" fill-rule="nonzero" transform="translate(7.211538, 7.211538) rotate(45.000000) translate(-7.211538, -7.211538) "></path>
    </g>
</svg>